<svg width="209.46494140625px" height="123.23251953124999px" xmlns="http://www.w3.org/2000/svg" viewBox="145.267529296875 13.383740234375004 209.46494140625 123.23251953124999" style="background: rgba(0, 0, 0, 0);" preserveAspectRatio="xMidYMid"><defs><linearGradient id="editing-sticker-gradient" x1="0.6805445069456145" y1="0.2604093469858122" x2="0.3194554930543855" y2="0.7395906530141878"><stop offset="0" stop-color="#fd9"></stop><stop offset="1" stop-color="#9df"></stop></linearGradient><filter id="editing-sticker" x="-100%" y="-100%" width="300%" height="300%"><feMorphology operator="erode" radius="1" in="SourceAlpha" result="alpha-erode"></feMorphology><feConvolveMatrix order="3,3" divisor="1" kernelMatrix="0 1 0 1 1 1 0 1 0" in="alpha-erode" result="alpha-round"></feConvolveMatrix><feMorphology operator="dilate" radius="3.5" in="alpha-round" result="dilate-shadow"></feMorphology><feGaussianBlur in="dilate-shadow" stdDeviation="1.5" result="shadow"></feGaussianBlur><feFlood flood-color="#fff" result="flood-sticker"></feFlood><feComposite operator="in" in="flood-sticker" in2="alpha-round" result="comp-sticker"></feComposite><feMorphology operator="dilate" radius="3" in="comp-sticker" result="morph-sticker"></feMorphology><feConvolveMatrix order="3,3" divisor="1" kernelMatrix="0 1 0 1 1 1 0 1 0" in="morph-sticker" result="sticker"></feConvolveMatrix><feMerge><feMergeNode in="shadow"></feMergeNode><feMergeNode in="sticker"></feMergeNode><feMergeNode in="SourceGraphic"></feMergeNode></feMerge></filter></defs><g filter="url(#editing-sticker)"><g transform="translate(180.7049981355667, 94.70999908447266)"><path d="M13.57 0.30L13.57 0.30Q10.56 0.24 8.91-1.00L8.91-1.00L8.91-1.00Q7.26-2.24 6.64-4.66L6.64-4.66L6.64-4.66Q6.02-7.08 6.02-11.15L6.02-11.15L6.02-25.78L1.59-25.78L1.59-28.38L6.14-28.38L6.84-36.52L9.74-36.52L9.74-28.38L18.59-28.38L18.59-25.78L9.74-25.78L9.74-11.09L9.74-11.09Q9.74-7.43 10.30-5.66L10.30-5.66L10.30-5.66Q10.86-3.89 11.83-3.33L11.83-3.33L11.83-3.33Q12.80-2.77 14.57-2.77L14.57-2.77L14.57-2.77Q17.76-2.77 18.88-2.95L18.88-2.95L19.06 0L19.06 0Q16.76 0.30 13.57 0.30L13.57 0.30ZM32.16-33.87L32.16-33.87Q31.03-33.87 30.27-34.54L30.27-34.54L30.27-34.54Q29.50-35.22 29.50-36.40L29.50-36.40L29.50-36.40Q29.50-37.58 30.27-38.32L30.27-38.32L30.27-38.32Q31.03-39.06 32.16-39.06L32.16-39.06L32.16-39.06Q33.28-39.06 34.01-38.38L34.01-38.38L34.01-38.38Q34.75-37.70 34.75-36.46L34.75-36.46L34.75-36.46Q34.75-35.22 34.01-34.54L34.01-34.54L34.01-34.54Q33.28-33.87 32.16-33.87L32.16-33.87ZM39.53 0L24.78 0L24.78-2.60L30.27-2.60L30.27-25.78L24.78-25.78L24.78-28.38L33.98-28.38L33.98-2.60L39.53-2.60L39.53 0ZM55.75 0.30L55.75 0.30Q50.27 0.30 47.17-3.19L47.17-3.19L47.17-3.19Q44.07-6.67 44.07-14.22L44.07-14.22L44.07-14.22Q44.07-19.18 45.52-22.45L45.52-22.45L45.52-22.45Q46.96-25.72 49.41-27.26L49.41-27.26L49.41-27.26Q51.86-28.79 54.87-28.79L54.87-28.79L54.87-28.79Q56.82-28.79 58.53-28.32L58.53-28.32L58.53-28.32Q60.24-27.85 62.30-26.61L62.30-26.61L62.30-39.12L66.02-39.12L66.02 0L63.01 0L62.72-1.42L62.72-1.42Q59.47 0.30 55.75 0.30L55.75 0.30ZM56.29-2.77L57.05-2.77L57.05-2.77Q58.47-2.77 59.59-2.98L59.59-2.98L59.59-2.98Q60.71-3.19 62.30-3.95L62.30-3.95L62.30-23.31L62.30-23.31Q60.00-24.66 58.41-25.22L58.41-25.22L58.41-25.22Q56.82-25.78 55.34-25.78L55.34-25.78L55.34-25.78Q51.80-25.78 49.77-22.86L49.77-22.86L49.77-22.86Q47.73-19.94 47.73-14.16L47.73-14.16L47.73-14.16Q47.73-2.77 56.29-2.77L56.29-2.77ZM84.72 0.30L84.72 0.30Q82.95 0.30 80.98-0.12L80.98-0.12L80.98-0.12Q79.00-0.53 77.35-1.42L77.35-1.42L77.05 0L74.05 0L74.05-39.12L77.76-39.12L77.76-26.61L77.76-26.61Q79.83-27.85 81.72-28.32L81.72-28.32L81.72-28.32Q83.60-28.79 85.61-28.79L85.61-28.79L85.61-28.79Q90.09-28.79 92.69-25.22L92.69-25.22L92.69-25.22Q95.28-21.65 95.28-14.22L95.28-14.22L95.28-14.22Q95.28-6.49 92.66-3.10L92.66-3.10L92.66-3.10Q90.03 0.30 84.72 0.30L84.72 0.30ZM83.37-2.77L84.19-2.77L84.19-2.77Q88.09-2.77 89.83-5.40L89.83-5.40L89.83-5.40Q91.57-8.02 91.57-14.16L91.57-14.16L91.57-14.16Q91.57-20.18 90.03-22.98L90.03-22.98L90.03-22.98Q88.50-25.78 85.14-25.78L85.14-25.78L85.14-25.78Q82.01-25.78 77.76-23.31L77.76-23.31L77.76-3.95L77.76-3.95Q79.36-3.19 80.59-2.98L80.59-2.98L80.59-2.98Q81.83-2.77 83.37-2.77L83.37-2.77ZM109.15-33.87L109.15-33.87Q108.03-33.87 107.26-34.54L107.26-34.54L107.26-34.54Q106.50-35.22 106.50-36.40L106.50-36.40L106.50-36.40Q106.50-37.58 107.26-38.32L107.26-38.32L107.26-38.32Q108.03-39.06 109.15-39.06L109.15-39.06L109.15-39.06Q110.27-39.06 111.01-38.38L111.01-38.38L111.01-38.38Q111.75-37.70 111.75-36.46L111.75-36.46L111.75-36.46Q111.75-35.22 111.01-34.54L111.01-34.54L111.01-34.54Q110.27-33.87 109.15-33.87L109.15-33.87ZM116.53 0L101.78 0L101.78-2.60L107.26-2.60L107.26-25.78L101.78-25.78L101.78-28.38L110.98-28.38L110.98-2.60L116.53-2.60L116.53 0ZM131.51 0.30L131.51 0.30Q128.50 0.24 126.85-1.00L126.85-1.00L126.85-1.00Q125.20-2.24 124.58-4.66L124.58-4.66L124.58-4.66Q123.96-7.08 123.96-11.15L123.96-11.15L123.96-25.78L119.53-25.78L119.53-28.38L124.08-28.38L124.78-36.52L127.68-36.52L127.68-28.38L136.53-28.38L136.53-25.78L127.68-25.78L127.68-11.09L127.68-11.09Q127.68-7.43 128.24-5.66L128.24-5.66L128.24-5.66Q128.80-3.89 129.77-3.33L129.77-3.33L129.77-3.33Q130.74-2.77 132.51-2.77L132.51-2.77L132.51-2.77Q135.70-2.77 136.82-2.95L136.82-2.95L137.00 0L137.00 0Q134.70 0.30 131.51 0.30L131.51 0.30Z" fill="url(#editing-sticker-gradient)" stroke="#000" stroke-width="4"></path></g></g><style>text {
  font-size: 64px;
  font-family: Arial Black;
  dominant-baseline: central;
  text-anchor: middle;
}</style></svg>